<svg width="100" height="101" viewBox="0 0 100 101" fill="none" xmlns="http://www.w3.org/2000/svg">
<path d="M50 100.081C77.6142 100.081 100 77.6957 100 50.0814C100 22.4672 77.6142 0.0814209 50 0.0814209C22.3858 0.0814209 0 22.4672 0 50.0814C0 77.6957 22.3858 100.081 50 100.081Z" fill="#CAF0F8"/>
<path opacity="0.1" d="M50 93.0813C73.7483 93.0813 93 73.8296 93 50.0814C93 26.3332 73.7483 7.08142 50 7.08142C26.2518 7.08142 7 26.3332 7 50.0814C7 73.8296 26.2518 93.0813 50 93.0813Z" fill="#00B4D8"/>
<path d="M47.9395 75.4553V69.1968C44.7759 69.1351 41.503 68.0193 39.594 66.4702L40.903 62.3186C43.1716 64.0188 45.9229 64.952 48.7577 64.9829C52.6306 64.9829 55.2488 62.4424 55.2488 58.9104C55.2488 55.5022 53.1214 53.3956 49.085 51.5364C43.5212 49.0579 40.0849 46.2073 40.0849 40.8165C40.0849 35.6731 43.3031 31.7694 48.3215 30.8399V24.5814H51.7033V30.5921C54.225 30.6266 56.6848 31.3788 58.7944 32.7608L57.4306 36.8507C55.4073 35.4657 53.0097 34.7306 50.5578 34.7437C46.3578 34.7437 44.7759 37.594 44.7759 40.0728C44.7759 43.295 46.7941 44.906 51.5397 47.137C57.1578 49.7396 59.9945 52.9617 59.9945 58.4766C59.9945 63.3718 56.9943 67.9576 51.3759 69.0104V75.4553H47.9395Z" fill="#F2F2F2"/>
</svg>
