<svg width="360" height="350" viewBox="0 0 360 350" fill="none" xmlns="http://www.w3.org/2000/svg">
<g clip-path="url(#clip0)">
<path d="M34.6197 294.844L31.4491 282.724C25.8276 280.414 20.0761 278.414 14.2222 276.732L13.822 282.366L12.199 276.159C4.93904 274.148 0 273.263 0 273.263C0 273.263 6.66981 297.853 20.6639 316.653L36.9682 319.429L24.3018 321.2C26.0621 323.253 27.9539 325.197 29.9658 327.019C50.3209 345.334 72.9929 353.737 80.6047 345.787C88.2166 337.838 77.8861 316.548 57.531 298.235C51.2208 292.558 43.2939 288.002 35.3587 284.415L34.6197 294.844Z" fill="#F3F3F3"/>
<path d="M64.7721 281.679L68.5217 269.714C64.9412 264.921 61.0847 260.327 56.9704 255.954L53.6239 260.576L55.5436 254.45C50.4006 249.092 46.6447 245.86 46.6447 245.86C46.6447 245.86 39.2427 270.253 41.1953 293.358L53.6722 303.904L41.8831 299.073C42.2956 301.712 42.8789 304.325 43.6298 306.894C51.2885 332.77 66.2158 351.323 76.9706 348.332C87.7255 345.341 90.2358 321.94 82.5772 296.063C80.2031 288.041 75.8464 280.169 70.9664 273.123L64.7721 281.679Z" fill="#F3F3F3"/>
<path d="M251.206 82.9152H249.228V30.3972C249.228 26.4054 248.417 22.4527 246.841 18.7647C245.265 15.0767 242.955 11.7258 240.043 8.90313C237.132 6.08049 233.674 3.84145 229.87 2.31385C226.065 0.786244 221.987 0 217.869 0H103.077C94.7602 0 86.7839 3.20255 80.9029 8.90313C75.0219 14.6037 71.718 22.3354 71.718 30.3972V318.52C71.718 322.512 72.5291 326.465 74.105 330.153C75.681 333.841 77.9909 337.192 80.9029 340.014C83.8148 342.837 87.2719 345.076 91.0765 346.603C94.8812 348.131 98.9591 348.917 103.077 348.917H217.869C226.186 348.917 234.162 345.715 240.043 340.014C245.924 334.313 249.228 326.582 249.228 318.52V120.299H251.206L251.206 82.9152Z" fill="#E6E6E6"/>
<path d="M219.134 7.90535H204.152C204.841 9.54301 205.104 11.3198 204.917 13.0792C204.731 14.8386 204.101 16.5266 203.084 17.9945C202.066 19.4624 200.691 20.6651 199.081 21.4967C197.47 22.3283 195.674 22.7632 193.849 22.7631H128.086C126.262 22.763 124.465 22.328 122.855 21.4964C121.245 20.6647 119.87 19.462 118.852 17.9941C117.835 16.5263 117.205 14.8383 117.019 13.079C116.833 11.3197 117.096 9.54293 117.785 7.90535H103.79C97.5786 7.90535 91.6219 10.297 87.2301 14.5541C82.8382 18.8113 80.3708 24.5852 80.3708 30.6057V318.31C80.3708 324.331 82.8382 330.105 87.2301 334.362C91.6219 338.619 97.5786 341.011 103.79 341.011H219.134C225.346 341.011 231.302 338.619 235.694 334.362C240.086 330.105 242.553 324.331 242.553 318.31V318.31V30.6052C242.553 24.5848 240.086 18.811 235.694 14.554C231.302 10.2969 225.345 7.90535 219.134 7.90535V7.90535Z" fill="white"/>
<path d="M146.764 122.512C146.764 120.501 147.31 118.526 148.347 116.784C149.385 115.043 150.878 113.597 152.675 112.592C150.879 111.587 148.841 111.057 146.766 111.057C144.692 111.057 142.654 111.586 140.857 112.591C139.06 113.596 137.568 115.042 136.531 116.784C135.494 118.525 134.948 120.501 134.948 122.512C134.948 124.522 135.494 126.498 136.531 128.239C137.568 129.981 139.06 131.427 140.857 132.432C142.654 133.437 144.692 133.966 146.766 133.966C148.841 133.966 150.879 133.436 152.675 132.431C150.878 131.426 149.385 129.981 148.348 128.24C147.31 126.498 146.764 124.523 146.764 122.512V122.512Z" fill="#CCCCCC"/>
<path d="M161.62 122.512C161.619 120.501 162.166 118.525 163.203 116.784C164.241 115.043 165.734 113.597 167.531 112.592C165.734 111.587 163.697 111.057 161.622 111.057C159.548 111.057 157.51 111.586 155.713 112.591C153.916 113.596 152.424 115.042 151.387 116.784C150.35 118.525 149.804 120.501 149.804 122.512C149.804 124.522 150.35 126.498 151.387 128.239C152.424 129.981 153.916 131.427 155.713 132.432C157.51 133.437 159.548 133.966 161.622 133.966C163.697 133.966 165.734 133.436 167.531 132.431C165.734 131.426 164.241 129.981 163.203 128.24C162.166 126.498 161.62 124.523 161.62 122.512V122.512Z" fill="#CCCCCC"/>
<path d="M176.138 133.966C182.665 133.966 187.955 128.838 187.955 122.512C187.955 116.186 182.665 111.057 176.138 111.057C169.612 111.057 164.321 116.186 164.321 122.512C164.321 128.838 169.612 133.966 176.138 133.966Z" fill="#90E0EF"/>
<path d="M195.888 158.289H127.015C126.359 158.288 125.73 158.036 125.267 157.586C124.803 157.137 124.542 156.527 124.542 155.892V89.1316C124.542 88.4961 124.803 87.8868 125.267 87.4373C125.73 86.9879 126.359 86.7351 127.015 86.7344H195.888C196.543 86.7351 197.172 86.9879 197.636 87.4373C198.099 87.8868 198.36 88.4961 198.361 89.1316V155.892C198.36 156.527 198.099 157.137 197.636 157.586C197.172 158.036 196.543 158.288 195.888 158.289V158.289ZM127.015 87.6938C126.621 87.6942 126.244 87.8459 125.966 88.1155C125.688 88.3852 125.531 88.7508 125.531 89.1321V155.892C125.531 156.274 125.688 156.639 125.966 156.909C126.244 157.179 126.621 157.33 127.015 157.331H195.888C196.281 157.33 196.658 157.179 196.937 156.909C197.215 156.639 197.371 156.274 197.372 155.892V89.1321C197.371 88.7508 197.215 88.3852 196.937 88.1155C196.658 87.8459 196.281 87.6942 195.888 87.6938H127.015Z" fill="#CCCCCC"/>
<path d="M211.266 209.464H105.635V210.423H211.266V209.464Z" fill="#CCCCCC"/>
<path d="M108.971 203.477C110.814 203.477 112.307 202.029 112.307 200.243C112.307 198.457 110.814 197.01 108.971 197.01C107.129 197.01 105.635 198.457 105.635 200.243C105.635 202.029 107.129 203.477 108.971 203.477Z" fill="#90E0EF"/>
<path d="M211.266 241.797H105.635V242.756H211.266V241.797Z" fill="#CCCCCC"/>
<path d="M108.971 235.811C110.814 235.811 112.307 234.363 112.307 232.577C112.307 230.791 110.814 229.343 108.971 229.343C107.129 229.343 105.635 230.791 105.635 232.577C105.635 234.363 107.129 235.811 108.971 235.811Z" fill="#90E0EF"/>
<path d="M209.333 278.617H175.951C175.374 278.617 174.821 278.394 174.414 277.999C174.006 277.604 173.777 277.068 173.776 276.509V265.168C173.777 264.609 174.006 264.073 174.414 263.678C174.821 263.283 175.374 263.06 175.951 263.06H209.333C209.91 263.06 210.462 263.283 210.87 263.678C211.278 264.073 211.507 264.609 211.508 265.168V276.509C211.507 277.068 211.278 277.604 210.87 277.999C210.462 278.394 209.91 278.617 209.333 278.617V278.617Z" fill="#90E0EF"/>
<path d="M119.853 203.477C121.695 203.477 123.189 202.029 123.189 200.243C123.189 198.457 121.695 197.01 119.853 197.01C118.01 197.01 116.517 198.457 116.517 200.243C116.517 202.029 118.01 203.477 119.853 203.477Z" fill="#90E0EF"/>
<path d="M130.734 203.477C132.577 203.477 134.07 202.029 134.07 200.243C134.07 198.457 132.577 197.01 130.734 197.01C128.892 197.01 127.398 198.457 127.398 200.243C127.398 202.029 128.892 203.477 130.734 203.477Z" fill="#90E0EF"/>
<path d="M119.853 235.811C121.695 235.811 123.189 234.363 123.189 232.577C123.189 230.791 121.695 229.343 119.853 229.343C118.01 229.343 116.517 230.791 116.517 232.577C116.517 234.363 118.01 235.811 119.853 235.811Z" fill="#90E0EF"/>
<path d="M130.734 235.811C132.577 235.811 134.07 234.363 134.07 232.577C134.07 230.791 132.577 229.343 130.734 229.343C128.892 229.343 127.398 230.791 127.398 232.577C127.398 234.363 128.892 235.811 130.734 235.811Z" fill="#90E0EF"/>
<path d="M358.655 350H11.6384C10.8955 350 10.2938 349.744 10.2938 349.429C10.2938 349.115 10.8955 348.858 11.6384 348.858H358.655C359.398 348.858 360 349.114 360 349.429C360 349.745 359.398 350 358.655 350Z" fill="#0077B6"/>
<path d="M272.92 229.309C273.157 229.414 273.385 229.537 273.601 229.678L295.279 220.709L296.053 215.174L304.715 215.123L304.203 227.818L275.591 235.153C275.531 235.345 275.458 235.535 275.375 235.719C274.961 236.574 274.296 237.292 273.462 237.783C272.629 238.273 271.665 238.514 270.691 238.475C269.717 238.436 268.776 238.119 267.988 237.563C267.199 237.008 266.597 236.239 266.258 235.353C265.919 234.467 265.857 233.504 266.081 232.584C266.304 231.664 266.803 230.829 267.515 230.183C268.227 229.538 269.119 229.11 270.081 228.955C271.043 228.799 272.03 228.922 272.92 229.309V229.309Z" fill="#F3F3F3"/>
<path d="M307.865 344.352H301.94L299.121 322.198L307.866 322.198L307.865 344.352Z" fill="#F3F3F3"/>
<path d="M297.707 342.711H309.135V349.685H290.512C290.512 347.835 291.27 346.061 292.62 344.753C293.969 343.445 295.799 342.711 297.707 342.711Z" fill="#0077B6"/>
<path d="M330.91 342.729L325.013 343.292L319.967 321.513L328.67 320.682L330.91 342.729Z" fill="#F3F3F3"/>
<path d="M320.635 342.061L332.008 340.975L332.713 347.916L314.18 349.685C314.087 348.774 314.181 347.854 314.455 346.977C314.729 346.101 315.179 345.285 315.778 344.577C316.378 343.869 317.115 343.283 317.949 342.851C318.782 342.419 319.695 342.151 320.635 342.061Z" fill="#0077B6"/>
<path d="M309.515 191.677C316.071 191.677 321.385 186.525 321.385 180.17C321.385 173.815 316.071 168.663 309.515 168.663C302.958 168.663 297.644 173.815 297.644 180.17C297.644 186.525 302.958 191.677 309.515 191.677Z" fill="#F3F3F3"/>
<path d="M300.616 339.822H300.616C300.681 339.822 300.748 339.819 300.814 339.813L307.505 339.224C308.037 339.175 308.531 338.935 308.889 338.55C309.246 338.166 309.442 337.666 309.438 337.149L309.438 337.149M300.616 339.822L308.947 299.806C309.071 308.054 309.373 329.098 309.476 336.366L309.488 337.149L309.438 337.149M300.616 339.822C300.118 339.823 299.636 339.654 299.254 339.344C298.873 339.035 298.617 338.605 298.531 338.131L298.531 338.13M300.616 339.822L298.531 338.13M309.438 337.149L309.426 336.366C309.323 329.098 309.021 308.055 308.897 299.807L308.897 299.807C308.896 299.737 308.921 299.67 308.968 299.618C309.014 299.565 309.078 299.532 309.147 299.522C309.217 299.512 309.288 299.528 309.347 299.565C309.406 299.603 309.45 299.66 309.469 299.727M309.438 337.149L309.469 299.727M285.142 262.054V266.077C285.142 266.112 285.145 266.147 285.15 266.181C285.39 267.676 295.415 321.637 298.482 338.139C298.57 338.626 298.832 339.066 299.223 339.383C299.613 339.7 300.106 339.873 300.616 339.872C300.683 339.872 300.751 339.869 300.819 339.863L285.142 262.054ZM285.142 262.054C285.142 261.907 285.189 261.764 285.277 261.645L285.142 262.054ZM309.469 299.727L309.421 299.741L309.469 299.727C309.469 299.727 309.469 299.727 309.469 299.727ZM309.469 299.727C311.962 308.379 319.158 330.739 321.304 337.386C321.459 337.858 321.784 338.26 322.219 338.52C322.655 338.78 323.173 338.88 323.678 338.801L330.616 337.693M309.469 299.727L330.616 337.693M298.531 338.13C295.464 321.627 285.439 267.667 285.199 266.173L285.15 266.181L285.199 266.173C285.194 266.142 285.192 266.11 285.192 266.078H285.192M298.531 338.13L285.192 266.078M285.192 266.078V266.077M285.192 266.078V266.077M285.192 266.077L285.192 262.054L285.192 262.054M285.192 266.077L285.192 262.054M285.192 262.054C285.192 261.918 285.236 261.786 285.318 261.675L285.318 261.675M285.192 262.054L285.318 261.675M285.318 261.675L286.642 259.877L286.642 259.877M285.318 261.675L286.642 259.877M286.642 259.877C286.701 259.796 286.777 259.73 286.866 259.683C286.956 259.636 287.055 259.609 287.157 259.604L287.157 259.604M286.642 259.877L287.157 259.604M287.157 259.604C290.932 259.433 299.001 259.096 306.275 258.982C309.912 258.926 313.35 258.925 315.953 259.028C317.254 259.08 318.346 259.158 319.149 259.268C319.55 259.323 319.878 259.386 320.123 259.457C320.246 259.493 320.347 259.53 320.425 259.569C320.504 259.608 320.558 259.647 320.589 259.684C320.881 260.038 321.077 260.576 321.204 261.205C321.331 261.832 321.387 262.543 321.403 263.237C321.435 264.625 321.305 265.941 321.256 266.375L321.256 266.374M287.157 259.604L321.256 266.374M321.256 266.374L321.256 266.383M321.256 266.374L321.256 266.383M321.256 266.383L321.261 266.473L321.26 266.473M321.256 266.383L321.26 266.473M321.26 266.473L321.261 266.479M321.26 266.473L321.261 266.479M321.261 266.479L332.371 335.345L321.261 266.479ZM331.991 336.867C332.319 336.427 332.455 335.88 332.371 335.345L331.991 336.867ZM331.991 336.867C331.663 337.306 331.169 337.603 330.617 337.693M331.991 336.867L330.617 337.693M330.617 337.693L330.616 337.693M330.617 337.693L330.616 337.693" fill="white" stroke="#0077B6" stroke-width="0.1"/>
<path d="M301.981 196.201C299.909 197.395 298.669 199.588 297.958 201.821C296.641 205.953 295.848 210.226 295.597 214.545L294.846 227.475L285.539 261.755C293.605 268.37 298.258 266.867 309.116 261.455C319.974 256.044 321.214 263.26 321.214 263.26L323.386 234.092L326.488 202.219C325.792 201.407 325.003 200.672 324.138 200.03C321.271 197.868 317.935 196.366 314.382 195.636C310.828 194.906 307.15 194.967 303.625 195.815L301.981 196.201Z" fill="#0077B6"/>
<path d="M298.958 236.232C299.208 236.323 299.451 236.434 299.683 236.562L321.118 226.163L321.473 220.529L330.315 219.938L330.789 232.781L302.145 241.963C301.911 242.935 301.377 243.815 300.614 244.487C299.852 245.158 298.896 245.588 297.875 245.72C296.854 245.852 295.816 245.68 294.898 245.226C293.981 244.772 293.228 244.058 292.739 243.179C292.25 242.3 292.049 241.298 292.162 240.306C292.275 239.313 292.698 238.378 293.373 237.624C294.048 236.869 294.944 236.332 295.942 236.084C296.939 235.835 297.991 235.887 298.958 236.232Z" fill="#F3F3F3"/>
<path d="M326.333 202.365C331.606 204.17 332.535 223.716 332.535 223.716C326.331 220.409 318.886 225.821 318.886 225.821C318.886 225.821 317.335 220.709 315.473 214.094C314.911 212.233 314.844 210.265 315.278 208.372C315.712 206.479 316.633 204.724 317.955 203.269C317.955 203.269 321.059 200.56 326.333 202.365Z" fill="#0077B6"/>
<path d="M320.159 183.213C318.68 182.066 316.662 184.151 316.662 184.151L315.478 173.828C315.478 173.828 308.083 174.687 303.35 173.542C298.617 172.396 297.878 177.7 297.878 177.7C297.634 175.557 297.584 173.399 297.73 171.248C298.025 168.667 301.871 166.087 308.675 164.366C315.478 162.646 319.028 170.101 319.028 170.101C323.761 172.395 321.638 184.36 320.159 183.213Z" fill="#0077B6"/>
</g>
<defs>
<clipPath id="clip0">
<rect width="360" height="350" fill="white"/>
</clipPath>
</defs>
</svg>
