<svg width="59" height="48" viewBox="0 0 59 48" fill="none" xmlns="http://www.w3.org/2000/svg">
<rect width="59" height="48" fill="#48CAE4"/>
<path d="M24.0186 39.132C23.1786 39.132 22.3746 39.012 21.6066 38.772C20.8626 38.556 20.2146 38.076 19.6626 37.332C19.7346 36.756 19.9026 35.916 20.1666 34.812C20.4546 33.708 20.8026 32.46 21.2106 31.068C21.6186 29.652 22.0506 28.2 22.5066 26.712C22.9626 25.224 23.4066 23.808 23.8386 22.464C24.2946 21.096 24.6906 19.908 25.0266 18.9C25.3866 17.868 25.6506 17.124 25.8186 16.668C25.8906 16.476 26.0106 16.188 26.1786 15.804C26.3466 15.42 26.5626 15.024 26.8266 14.616C27.0906 14.208 27.3906 13.872 27.7266 13.608C28.0866 13.32 28.4706 13.176 28.8786 13.176C29.2866 13.176 29.7426 13.344 30.2466 13.68C29.5026 15.36 28.7466 17.232 27.9786 19.296C27.2346 21.336 26.5146 23.448 25.8186 25.632C25.1466 27.792 24.5226 29.904 23.9466 31.968C23.3946 34.008 22.9386 35.88 22.5786 37.584C22.7706 37.656 23.0346 37.704 23.3706 37.728C23.7306 37.776 24.0666 37.8 24.3786 37.8C25.9386 37.8 27.4266 37.416 28.8426 36.648C30.2586 35.904 31.5546 34.908 32.7306 33.66C33.9306 32.388 34.9746 30.972 35.8626 29.412C36.7506 27.828 37.4346 26.208 37.9146 24.552C38.3946 22.896 38.6346 21.312 38.6346 19.8C38.6346 17.856 38.2986 16.284 37.6266 15.084C36.9786 13.86 36.0786 12.972 34.9266 12.42C33.7746 11.844 32.4546 11.556 30.9666 11.556C29.4066 11.556 28.0026 11.844 26.7546 12.42C25.5066 12.972 24.5226 13.74 23.8026 14.724C23.1066 15.684 22.7586 16.788 22.7586 18.036C22.7586 18.3 22.7826 18.588 22.8306 18.9C22.8786 19.188 22.9626 19.476 23.0826 19.764C22.0506 19.764 21.3066 19.548 20.8506 19.116C20.4186 18.66 20.2026 18.108 20.2026 17.46C20.2026 16.62 20.5026 15.768 21.1026 14.904C21.7266 14.04 22.5786 13.248 23.6586 12.528C24.7626 11.784 26.0346 11.196 27.4746 10.764C28.9146 10.308 30.4746 10.08 32.1546 10.08C34.5066 10.08 36.3906 10.536 37.8066 11.448C39.2226 12.336 40.2426 13.548 40.8666 15.084C41.5146 16.596 41.8386 18.288 41.8386 20.16C41.8386 22.224 41.5026 24.204 40.8306 26.1C40.1826 27.972 39.2706 29.7 38.0946 31.284C36.9426 32.868 35.5986 34.248 34.0626 35.424C32.5506 36.6 30.9306 37.512 29.2026 38.16C27.4986 38.808 25.7706 39.132 24.0186 39.132Z" fill="#00B4D8"/>
<rect x="3.71698" y="30.6205" width="45" height="2" rx="1" transform="rotate(-35 3.71698 30.6205)" fill="white"/>
<rect x="6.1051" y="37.1049" width="35" height="2" rx="1" transform="rotate(-35 6.1051 37.1049)" fill="white"/>
<rect x="9" y="42.3394" width="25" height="2" rx="1" transform="rotate(-35 9 42.3394)" fill="white"/>
</svg>
