<svg width="480" height="410" viewBox="0 0 480 410" fill="none" xmlns="http://www.w3.org/2000/svg">
<path d="M242.85 410C373.824 410 480 401.206 480 390.358C480 379.509 373.824 370.715 242.85 370.715C111.876 370.715 5.70071 379.509 5.70071 390.358C5.70071 401.206 111.876 410 242.85 410Z" fill="#ADE8F4"/>
<path d="M444.296 353.867L446.519 371.148L430.96 372.719L433.182 351.511L444.296 353.867Z" fill="#E1E1E1"/>
<path d="M370.946 116.647C370.946 116.647 372.428 137.855 372.428 138.641C372.428 139.426 362.055 193.625 362.055 193.625C362.055 193.625 347.237 223.474 362.055 222.689C376.873 221.903 372.428 194.411 372.428 194.411L387.987 148.852L381.319 116.647L370.946 116.647Z" fill="#A0616A"/>
<path d="M395.396 353.867L393.174 371.148L408.733 372.719L406.51 351.511L395.396 353.867Z" fill="#E1E1E1"/>
<path d="M378.355 192.054L374.651 197.553C374.651 197.553 372.428 221.118 374.651 228.973C376.873 236.828 381.319 272.961 381.319 275.317C381.319 277.674 382.06 279.245 381.319 280.03C380.578 280.816 378.355 280.816 379.837 282.387C381.319 283.958 381.319 288.671 381.319 288.671V292.598L390.951 350.725C390.951 350.725 385.023 357.795 389.469 357.795C393.914 357.795 410.214 357.795 409.473 349.94L407.991 349.154C407.991 349.154 405.769 297.311 406.51 294.955C407.25 292.598 406.51 287.885 406.51 287.885C406.51 287.885 405.028 285.529 406.51 284.743C407.991 283.958 407.991 277.674 407.991 277.674L414.659 229.758C414.659 229.758 420.587 261.964 424.291 265.106C427.996 268.248 427.255 276.103 427.255 276.103L430.218 345.227C430.218 345.227 427.255 353.082 430.218 354.653C433.182 356.224 445.777 361.722 446.518 353.867C447.259 346.012 450.964 277.674 450.964 274.532C450.964 271.39 450.223 269.819 450.964 267.462C451.705 265.106 450.223 265.106 450.964 265.106C451.705 265.106 449.482 262.749 449.482 261.178V222.689C449.482 222.689 450.223 214.834 450.964 213.263C451.705 211.692 450.223 210.121 450.964 207.764C451.705 205.408 449.482 197.553 449.482 197.553L416.141 188.127L378.355 192.054Z" fill="#0077B6"/>
<path d="M404.287 368.006C404.287 368.006 407.991 364.079 402.805 364.079C399.475 364.151 396.196 364.953 393.173 366.435L389.469 380.574C389.469 380.574 374.28 393.535 391.321 391.964C408.362 390.393 405.769 391.571 405.769 391.571C405.769 391.571 410.955 390 411.696 388.429C412.437 386.858 410.214 364.079 410.214 364.079C410.214 364.079 407.991 370.363 404.287 368.006Z" fill="#0077B6"/>
<path d="M436.146 368.006C436.146 368.006 432.441 364.079 437.628 364.079C440.957 364.151 444.237 364.953 447.259 366.435L450.964 380.574C450.964 380.574 466.152 393.535 449.112 391.964C432.071 390.393 432.441 391.571 432.441 391.571C432.441 391.571 427.255 390 426.514 388.429C425.773 386.858 430.218 364.079 430.218 364.079C430.218 364.079 432.441 370.363 436.146 368.006Z" fill="#0077B6"/>
<path d="M387.987 54.5921C398.626 54.5921 407.251 45.4485 407.251 34.1692C407.251 22.8899 398.626 13.7462 387.987 13.7462C377.348 13.7462 368.724 22.8899 368.724 34.1692C368.724 45.4485 377.348 54.5921 387.987 54.5921Z" fill="#F3F3F3"/>
<path d="M381.319 49.0936C381.319 49.0936 384.282 64.8036 384.282 67.1601C384.282 69.5166 396.878 76.5861 396.878 76.5861L410.955 57.7341C410.955 57.7341 402.064 44.3807 402.064 41.2387L381.319 49.0936Z" fill="#F3F3F3"/>
<path d="M392.432 69.5166C392.432 69.5166 385.975 67.6944 384.017 64.678C384.017 64.678 363.537 86.0121 363.537 89.9396L379.837 120.574C379.837 120.574 379.837 131.571 381.319 132.357C382.801 133.142 381.319 132.357 381.319 135.499C381.319 138.641 376.873 159.063 378.355 162.205C379.837 165.348 381.319 162.991 379.837 167.704C378.355 172.417 374.651 197.553 374.651 197.553C374.651 197.553 387.987 192.84 407.251 200.695C426.514 208.55 449.482 197.553 449.482 197.553C449.482 197.553 443.555 183.414 445.037 178.701C446.518 173.988 441.332 165.347 441.332 165.347L437.628 93.0816C437.628 93.0816 442.814 60.8762 439.109 59.3052L431.7 56.1631L407.974 53.0715C407.974 53.0715 402.064 68.7311 392.432 69.5166Z" fill="white"/>
<path d="M370.946 84.4411L363.537 89.9396C363.537 89.9396 359.833 101.722 363.537 107.221C367.242 112.719 368.724 120.574 368.724 120.574L383.542 119.003L370.946 84.4411Z" fill="white"/>
<path d="M373.279 12.5856L369.938 11.1673C369.938 11.1673 376.925 3.01239 386.645 3.72153L383.911 0.530413C383.911 0.530413 390.594 -2.30607 396.67 5.13974C399.863 9.05386 403.559 13.6547 405.862 18.8374H409.441L407.947 22.324L413.175 25.8105L407.809 25.1843C408.317 28.1943 408.143 31.2893 407.302 34.214L407.446 36.9698C407.446 36.9698 401.226 26.7681 401.226 25.3499V28.8955C401.226 28.8955 397.885 25.7045 397.885 23.5771L396.062 26.059L395.151 22.1588L383.911 26.059L385.734 22.868L378.747 23.9317L381.481 20.0315C381.481 20.0315 373.583 24.6408 373.279 28.541C372.976 32.4412 369.027 37.4051 369.027 37.4051L367.204 33.8595C367.204 33.8595 364.47 17.9041 373.279 12.5856Z" fill="#0077B6"/>
<path d="M377.747 170.939H83.3268V390.209H377.747V170.939Z" fill="#F2F2F2"/>
<path d="M182.037 254.601H108.111V391.418H182.037V254.601Z" fill="#90E0EF"/>
<path d="M141.699 262.808H121.785V282.489H141.699V262.808Z" fill="#F2F2F2"/>
<path d="M168.363 262.808H148.449V282.489H168.363V262.808Z" fill="#F2F2F2"/>
<path d="M141.699 289.646H121.785V310.042H141.699V289.646Z" fill="#F2F2F2"/>
<path d="M168.363 289.646H148.449V310.042H168.363V289.646Z" fill="#F2F2F2"/>
<path d="M172.636 337.204C175.232 337.204 177.336 334.972 177.336 332.22C177.336 329.468 175.232 327.237 172.636 327.237C170.04 327.237 167.935 329.468 167.935 332.22C167.935 334.972 170.04 337.204 172.636 337.204Z" fill="#0077B6"/>
<path d="M352.963 241.613H206.821V371.634H352.963V241.613Z" fill="url(#paint0_linear)"/>
<path d="M408.514 212.22H52.56L76.2932 159.613L81.6046 147.834L88.5532 132.431L93.8645 120.652L100.022 107.007H380.47L384.106 120.652L387.247 132.431L391.353 147.834L394.494 159.613L408.514 212.22Z" fill="#90E0EF"/>
<path d="M217.077 295.524H211.949V329.049H217.077V295.524Z" fill="#0096C7"/>
<path d="M217.077 300.508H211.949V304.585H217.077V300.508Z" fill="#F2F2F2"/>
<path d="M217.077 319.988H211.949V324.065H217.077V319.988Z" fill="#F2F2F2"/>
<path d="M232.033 295.524H219.641V329.049H232.033V295.524Z" fill="#0096C7"/>
<path d="M232.033 300.508H219.641V304.585H232.033V300.508Z" fill="#F2F2F2"/>
<path d="M232.033 319.988H219.641V324.065H232.033V319.988Z" fill="#F2F2F2"/>
<path d="M240.152 295.524H235.024V329.049H240.152V295.524Z" fill="#0096C7"/>
<path d="M240.152 300.508H235.024V304.585H240.152V300.508Z" fill="#F2F2F2"/>
<path d="M240.152 319.988H235.024V324.065H240.152V319.988Z" fill="#F2F2F2"/>
<path d="M247.843 295.524H242.716V329.049H247.843V295.524Z" fill="#0096C7"/>
<path d="M247.843 300.508H242.716V304.585H247.843V300.508Z" fill="#F2F2F2"/>
<path d="M247.843 319.988H242.716V324.065H247.843V319.988Z" fill="#F2F2F2"/>
<path d="M252.785 295.643L247.986 297.56L259.14 328.93L263.938 327.013L252.785 295.643Z" fill="#0096C7"/>
<path d="M254.443 300.306L249.645 302.223L251.001 306.039L255.799 304.121L254.443 300.306Z" fill="#F2F2F2"/>
<path d="M260.924 318.534L256.126 320.452L257.482 324.267L262.28 322.35L260.924 318.534Z" fill="#F2F2F2"/>
<path d="M348.263 295.524H335.87V329.049H348.263V295.524Z" fill="#0096C7"/>
<path d="M348.263 300.508H335.87V304.585H348.263V300.508Z" fill="#F2F2F2"/>
<path d="M348.263 319.988H335.87V324.065H348.263V319.988Z" fill="#F2F2F2"/>
<path d="M332.879 295.524H327.751V329.049H332.879V295.524Z" fill="#0096C7"/>
<path d="M332.879 300.508H327.751V304.585H332.879V300.508Z" fill="#F2F2F2"/>
<path d="M332.879 319.988H327.751V324.065H332.879V319.988Z" fill="#F2F2F2"/>
<path d="M325.188 295.524H320.06V329.049H325.188V295.524Z" fill="#0096C7"/>
<path d="M325.188 300.508H320.06V304.585H325.188V300.508Z" fill="#F2F2F2"/>
<path d="M325.188 319.988H320.06V324.065H325.188V319.988Z" fill="#F2F2F2"/>
<path d="M315.118 295.643L303.965 327.013L308.763 328.93L319.917 297.56L315.118 295.643Z" fill="#0096C7"/>
<path d="M313.461 300.306L312.104 304.121L316.902 306.039L318.259 302.223L313.461 300.306Z" fill="#F2F2F2"/>
<path d="M306.979 318.534L305.623 322.35L310.421 324.267L311.778 320.452L306.979 318.534Z" fill="#F2F2F2"/>
<path d="M352.963 329.049H206.821V332.22H352.963V329.049Z" fill="#F2F2F2"/>
<path d="M297.412 295.524H270.491V329.049H297.412V295.524Z" fill="#0096C7"/>
<path d="M290.789 302.773H277.115V309.115H290.789V302.773Z" fill="#F2F2F2"/>
<path d="M387.247 132.431H88.5532L93.8645 120.652H384.106L387.247 132.431Z" fill="#ADE8F4"/>
<path d="M394.494 159.613H76.2932L81.6046 147.834H391.353L394.494 159.613Z" fill="#ADE8F4"/>
<path d="M425.773 91.5106C425.773 91.5106 421.483 103.207 422.379 114.78C422.543 116.852 423.201 118.846 424.291 120.574V120.574L371.728 147.03C371.728 147.03 347.978 149.637 353.905 160.634C359.833 171.631 381.319 155.136 381.319 155.136C381.319 155.136 437.628 146.495 442.073 137.855C446.518 129.215 449.482 93.0816 449.482 93.0816L425.773 91.5106Z" fill="#F3F3F3"/>
<path d="M427.996 59.3051H439.109C439.109 59.3051 447.259 60.8762 449.482 76.5861C451.705 92.2961 453.927 96.2236 451.705 96.2236C449.482 96.2236 422.809 95.4381 422.809 94.6526C422.809 93.8671 427.996 59.3051 427.996 59.3051Z" fill="white"/>
<defs>
<linearGradient id="paint0_linear" x1="279.892" y1="241.613" x2="279.892" y2="371.634" gradientUnits="userSpaceOnUse">
<stop stop-color="#CAF0F8"/>
<stop offset="1" stop-color="#48CAE4"/>
</linearGradient>
</defs>
</svg>
